<svg width="32" height="33" viewBox="0 0 32 33" fill="none" xmlns="http://www.w3.org/2000/svg">
<path d="M17.0044 3.25037C18.5479 3.25037 19.8188 4.43454 19.9823 5.95616L22.3333 5.95554C23.9212 5.95554 25.2208 7.2069 25.3264 8.7905L25.3333 8.99886V15.6589C24.6913 15.5051 24.0217 15.4237 23.3333 15.4237V8.99886C23.3333 8.48528 22.9571 8.06086 22.4691 7.99369L22.3333 7.98442L19.4901 7.98553C18.9521 8.79534 18.0396 9.32795 17.0044 9.32795H12.3289C11.2937 9.32795 10.3813 8.79534 9.84316 7.98553L7 7.98442C6.49373 7.98442 6.07535 8.36605 6.00913 8.86121L6 8.99886V27.265C6 27.7786 6.3762 28.203 6.86431 28.2701L7 28.2795H15.6461C16.0299 29.0249 16.5159 29.7075 17.0853 30.3083H7C5.41219 30.3083 4.11248 29.0569 4.00692 27.4733L4 27.265V8.99886C4 7.38812 5.23355 6.06964 6.7946 5.96256L7 5.95554L9.35112 5.95616C9.5146 4.43454 10.7854 3.25037 12.3289 3.25037H17.0044ZM17.0044 5.27925H12.3289C11.7791 5.27925 11.3333 5.7314 11.3333 6.28916C11.3333 6.84692 11.7791 7.29907 12.3289 7.29907H17.0044C17.5543 7.29907 18 6.84692 18 6.28916C18 5.7314 17.5543 5.27925 17.0044 5.27925Z" fill="white"/>
<path d="M10.9999 19.4753H16.0329C15.1681 20.8432 14.6666 22.47 14.6666 24.2155C14.6666 24.675 14.7014 25.1262 14.7683 25.5666L14.6666 25.567C11.296 25.567 9.33325 24.3378 9.33325 21.8387V21.1661C9.33325 20.2324 10.0794 19.4753 10.9999 19.4753Z" fill="white"/>
<path d="M14.6666 11.3599C16.5075 11.3599 17.9999 12.8738 17.9999 14.7413C17.9999 16.6088 16.5075 18.1228 14.6666 18.1228C12.8256 18.1228 11.3333 16.6088 11.3333 14.7413C11.3333 12.8738 12.8256 11.3599 14.6666 11.3599Z" fill="white"/>
<path d="M30.6667 24.2155C30.6667 20.1069 27.3835 16.7762 23.3333 16.7762C19.2832 16.7762 16 20.1069 16 24.2155C16 28.3241 19.2832 31.6547 23.3333 31.6547C27.3835 31.6547 30.6667 28.3241 30.6667 24.2155ZM24.0008 24.8918L24.0015 28.278C24.0015 28.6516 23.7031 28.9543 23.3348 28.9543C22.9667 28.9543 22.6681 28.6516 22.6681 28.278L22.6675 24.8918H19.3281C18.96 24.8918 18.6615 24.5891 18.6615 24.2155C18.6615 23.842 18.96 23.5392 19.3281 23.5392H22.6673L22.6667 20.1568C22.6667 19.7832 22.9652 19.4805 23.3333 19.4805C23.7015 19.4805 24 19.7832 24 20.1568L24.0007 23.5392H27.3373C27.7056 23.5392 28.004 23.842 28.004 24.2155C28.004 24.5891 27.7056 24.8918 27.3373 24.8918H24.0008Z" fill="white"/>
</svg>
