<svg width="32" height="34" viewBox="0 0 32 34" fill="none" xmlns="http://www.w3.org/2000/svg">
<path d="M16.0001 11.0988C14.6337 11.0988 13.4129 11.7306 12.6058 12.7219C11.9776 13.4937 11.6001 14.4833 11.6001 15.5624C11.6001 17.8146 13.2445 19.6773 15.3818 19.9822C16.4247 17.9404 18.2223 16.359 20.3998 15.6181C20.3999 15.5996 20.4001 15.581 20.4001 15.5624C20.4001 14.4833 20.0227 13.4937 19.3943 12.7219C18.5873 11.7306 17.3665 11.0988 16.0001 11.0988ZM29.8831 18.2757C28.2692 16.3663 25.8739 15.1566 23.2001 15.1566C22.7902 15.1566 22.3868 15.185 21.9918 15.2401C21.9452 14.3341 21.7033 13.4805 21.3081 12.7219H28.0001C29.3255 12.7219 30.4001 13.812 30.4001 15.1566V15.9681C30.4001 16.7481 30.2233 17.5336 29.8831 18.2757ZM14.7313 21.649C14.5156 22.4229 14.4001 23.2397 14.4001 24.0837C14.4001 26.9996 15.7782 29.5889 17.9097 31.218C17.3115 31.3284 16.6742 31.3876 16.0001 31.3876C10.9753 31.3876 8.0001 28.095 8.0001 24.8952V24.0837C8.0001 23.4403 8.24611 22.8551 8.64792 22.4198C9.08586 21.9454 9.70885 21.649 10.4001 21.649H14.7313ZM6.90387 22.1108C3.52911 21.1814 1.6001 18.5447 1.6001 15.9681V15.1566C1.6001 13.812 2.67461 12.7219 4.0001 12.7219H10.6921C10.2503 13.5699 10.0001 14.5365 10.0001 15.5624C10.0001 17.3259 10.7394 18.9142 11.9208 20.0259H10.4001C8.89687 20.0259 7.5873 20.8672 6.90387 22.1108ZM9.6001 2.17175C12.0301 2.17175 14.0001 4.17015 14.0001 6.63529C14.0001 9.10043 12.0301 11.0988 9.6001 11.0988C7.17005 11.0988 5.2001 9.10043 5.2001 6.63529C5.2001 4.17015 7.17005 2.17175 9.6001 2.17175ZM22.4001 2.17175C24.8302 2.17175 26.8001 4.17015 26.8001 6.63529C26.8001 9.10043 24.8302 11.0988 22.4001 11.0988C19.97 11.0988 18.0001 9.10043 18.0001 6.63529C18.0001 4.17015 19.97 2.17175 22.4001 2.17175ZM23.2001 31.3876C27.1766 31.3876 30.4001 28.1176 30.4001 24.0837C30.4001 20.0498 27.1766 16.7797 23.2001 16.7797C19.2236 16.7797 16.0001 20.0498 16.0001 24.0837C16.0001 28.1176 19.2236 31.3876 23.2001 31.3876ZM23.2001 20.0259C23.6419 20.0259 24.0001 20.3893 24.0001 20.8375V23.2721H26.4001C26.8419 23.2721 27.2001 23.6355 27.2001 24.0837C27.2001 24.5318 26.8419 24.8952 26.4001 24.8952H24.0001V27.3299C24.0001 27.778 23.6419 28.1414 23.2001 28.1414C22.7583 28.1414 22.4001 27.778 22.4001 27.3299V24.8952H20.0001C19.5583 24.8952 19.2001 24.5318 19.2001 24.0837C19.2001 23.6355 19.5583 23.2721 20.0001 23.2721H22.4001V20.8375C22.4001 20.3893 22.7583 20.0259 23.2001 20.0259Z" fill="white"/>
</svg>
