<svg width="32" height="33" viewBox="0 0 32 33" fill="none" xmlns="http://www.w3.org/2000/svg">
<g clip-path="url(#clip0_17_1074)">
<path d="M10.8417 15.7268C7.65842 13.6595 4.8614 13.4735 2.29572 15.146L2.1372 14.5368C4.81231 12.7974 7.71635 12.9923 11.0038 15.1214L10.8417 15.7268ZM11.0042 19.1122C7.72078 16.9843 4.81271 16.7901 2.1376 18.5269L2.29612 19.1342C4.87105 17.4687 7.66284 17.6617 10.8421 19.7195L11.0042 19.1122ZM11.0042 11.1293C7.72078 9.00152 4.81271 8.81232 2.1376 10.5409L2.29612 11.152C4.87105 9.48334 7.66284 9.67442 10.8421 11.7379L11.0042 11.1293ZM25.1668 19.0037L26.4418 17.0007V32.1383H15.524C15.1467 32.6441 14.2595 33.0036 13.2199 33.0036C12.1815 33.0036 11.2959 32.6441 10.9209 32.1383H0V8.79781C0 6.73242 0 5.37714 0 5.30336C7.18769 0.411368 12.4377 5.21065 13.3502 6.59494C13.9887 5.67292 18.6292 1.38447 24.6751 4.288L23.4605 6.19321C22.6164 5.81293 21.6854 5.57454 20.6892 5.57454C17.0811 5.57454 14.1517 7.45074 14.1517 10.9219V30.4696C14.1517 29.552 19.2621 24.177 25.1684 30.0414V19.0037H25.1668ZM12.375 10.9219C12.375 7.45074 9.44679 5.57454 5.83826 5.57454C4.10581 5.57454 2.52987 6.22474 1.36311 7.28424V30.0389C7.26333 24.1738 12.3746 29.5495 12.3746 30.4671L12.375 10.9219ZM14.9785 15.1182L15.1386 15.7274C16.3927 14.9114 17.6834 14.4699 18.9539 14.2347L19.1374 13.5441C17.7542 13.7611 16.346 14.2347 14.9785 15.1182ZM14.9785 19.1122L15.137 19.7195C16.033 19.1412 16.9451 18.7426 17.8612 18.4588L18.0402 17.76C17.0179 18.0476 15.9835 18.4588 14.9785 19.1122ZM14.9785 11.1293L15.137 11.7379C17.0606 10.4905 19.071 9.99606 20.9547 10.1228L21.3502 9.4991C19.3003 9.26954 17.0879 9.76082 14.9785 11.1293ZM31.5502 6.91153L23.796 19.0661L21.8045 20.3426C21.3462 20.627 20.7045 21.0413 20.1565 21.3844C20.0064 21.4822 19.8274 21.5932 19.7043 21.6714L18.7584 22.2825C18.1831 22.6413 17.8998 22.2074 18.1376 21.2993L18.5166 19.8198C18.5709 19.6268 18.6417 19.3531 18.7041 19.1147C18.9294 18.2557 19.1873 17.2385 19.3708 16.5296L20.1875 13.401L27.9372 1.24951C28.4124 0.500291 29.075 0.316771 29.4062 0.838322L31.8141 4.61342C32.142 5.13686 32.0253 6.17051 31.5502 6.91153ZM22.6457 18.7035L20.4168 15.2046L19.9751 16.9175L19.7164 17.9038L19.4665 18.87L20.3082 20.1963L21.5623 19.396L22.6457 18.7035Z" fill="white"/>
</g>
<defs>
<clipPath id="clip0_17_1074">
<rect width="32" height="32.4621" fill="white" transform="translate(0 0.541504)"/>
</clipPath>
</defs>
</svg>
