<svg width="32" height="33" viewBox="0 0 32 33" fill="none" xmlns="http://www.w3.org/2000/svg">
<g clip-path="url(#clip0_75_2)">
<path d="M26.95 5.41002H16.95V3.73292C16.95 3.13782 16.5 0.541016 15.95 0.541016C15.4 0.541016 14.95 3.13782 14.95 3.73292V5.41002H4.94995C4.09995 5.41002 3.44995 6.11331 3.44995 6.97891C3.44995 7.84451 4.09995 8.54781 4.94995 8.54781C5.79995 8.54781 6.44995 7.84451 6.44995 6.97891C6.44995 6.87071 10.7 9.03471 14.9 9.14291V26.6713C12.55 26.7795 10.75 27.6992 10.75 28.4025C10.75 28.5107 10.8 28.673 10.9 28.7812H8.99995C8.59995 28.7812 8.29995 29.1058 8.29995 29.4845V31.2157C8.29995 31.5944 8.59995 31.919 8.99995 31.919H11.05C11.45 31.919 11.75 31.5944 11.75 31.2157V30.837H19.95V31.2157C19.95 31.5944 20.25 31.919 20.65 31.919H22.7C23.1 31.919 23.4 31.5944 23.4 31.2157V29.4845C23.4 29.1058 23.1 28.7812 22.7 28.7812H20.7999C20.8999 28.673 20.95 28.5648 20.95 28.4025C20.95 27.6992 19.15 26.7795 16.8 26.6713V9.14291C21.05 9.08881 25.25 6.92481 25.25 6.97891C25.25 7.84451 25.9 8.54781 26.75 8.54781C27.6 8.54781 28.25 7.84451 28.25 6.97891C28.45 6.11331 27.8 5.41002 26.95 5.41002Z" stroke="white" stroke-width="2" stroke-linejoin="round"/>
<path d="M0.550049 22.722L5.00005 8.60193L9.50005 23.2089" stroke="white" stroke-width="2" stroke-linejoin="round"/>
<path d="M22.5 23.263L26.95 8.60193L31.5 23.7499" stroke="white" stroke-width="2" stroke-linejoin="round"/>
<path d="M9.5 22.9384C9.5 23.9663 7.5 24.886 5 24.886C2.5 24.886 0.5 23.9663 0.5 22.9384C0.5 21.9105 9.5 21.9105 9.5 22.9384Z" stroke="white" stroke-width="2" stroke-linejoin="round"/>
<path d="M31.45 23.4794C31.45 24.5073 29.45 25.427 26.95 25.427C24.45 25.427 22.45 24.5073 22.45 23.4794C22.5 22.4515 31.45 22.4515 31.45 23.4794Z" stroke="white" stroke-width="2" stroke-linejoin="round"/>
</g>
<defs>
<clipPath id="clip0_75_2">
<rect width="32" height="32.46" fill="white"/>
</clipPath>
</defs>
</svg>
