<svg width="32" height="33" viewBox="0 0 32 33" fill="none" xmlns="http://www.w3.org/2000/svg">
<g clip-path="url(#clip0_18_6)">
<path d="M32 30.3807H2.58137V0.537964H1.41863V30.3807H0V31.5616H1.41863V33.0001H2.58137V31.5616H32V30.3807Z" fill="white"/>
<path d="M12.6675 15.5023C12.3459 15.5023 12.0854 15.7658 12.0854 16.0921V28.2654C12.0854 28.5916 12.3459 28.8558 12.6675 28.8558H15.3329C15.6545 28.8558 15.9149 28.5916 15.9149 28.2654V16.0921C15.9149 15.7658 15.6545 15.5023 15.3329 15.5023H12.6675Z" fill="white"/>
<path d="M6.00007 20.912C5.67846 20.912 5.4187 21.1768 5.4187 21.5024V28.2654C5.4187 28.5916 5.67846 28.8558 6.00007 28.8558H8.66739C8.9877 28.8558 9.24878 28.5916 9.24878 28.2654V21.5024C9.24878 21.1768 8.9877 20.912 8.66739 20.912H6.00007Z" fill="white"/>
<path d="M19.3334 20.912C19.0124 20.912 18.752 21.1768 18.752 21.5024V28.2654C18.752 28.5916 19.0124 28.8558 19.3334 28.8558H22C22.3216 28.8558 22.582 28.5916 22.582 28.2654V21.5024C22.582 21.1768 22.3216 20.912 22 20.912H19.3334Z" fill="white"/>
<path d="M26 14.1498C25.6784 14.1498 25.418 14.414 25.418 14.7402V28.2654C25.418 28.5917 25.6784 28.8559 26 28.8559H28.6667C28.9876 28.8559 29.2481 28.5917 29.2481 28.2654V14.7402C29.2481 14.414 28.9876 14.1498 28.6667 14.1498H26Z" fill="white"/>
<path d="M5.49036 19.772C5.62317 19.772 5.75598 19.7264 5.86536 19.6327L14.7885 11.9808L19.6902 16.9652C19.7989 17.0768 19.9572 17.125 20.1024 17.1382C20.2573 17.1375 20.4057 17.0755 20.5151 16.9638L28.6271 8.66337C28.8537 8.43222 28.851 8.05775 28.6232 7.82858C28.3953 7.59875 28.0262 7.5994 27.8009 7.83188L20.1004 15.711L15.2338 10.7629C15.0203 10.545 14.6785 10.5305 14.4467 10.7286L5.11406 18.7312C4.86796 18.9419 4.83801 19.3143 5.0457 19.5634C5.16029 19.7014 5.325 19.772 5.49036 19.772Z" fill="white"/>
</g>
<defs>
<clipPath id="clip0_18_6">
<rect width="32" height="32.4621" fill="white" transform="translate(0 0.537964)"/>
</clipPath>
</defs>
</svg>
